<?xml version="1.0" encoding="UTF-8" standalone="no"?>
<svg width="871px" height="124px" viewBox="0 0 871 124" version="1.1" xmlns="http://www.w3.org/2000/svg" xmlns:xlink="http://www.w3.org/1999/xlink" xmlns:sketch="http://www.bohemiancoding.com/sketch/ns">
    <!-- Generator: Sketch 3.2 (9961) - http://www.bohemiancoding.com/sketch -->
    <title>Slice 1</title>
    <desc>Created with Sketch.</desc>
    <defs></defs>
    <g id="Page-1" stroke="none" stroke-width="1" fill="none" fill-rule="evenodd" sketch:type="MSPage">
        <g id="atomic-css-logo" sketch:type="MSLayerGroup" transform="translate(0.000000, -10.000000)">
            <g id="Finish_Elements_Layer" transform="translate(0.000000, 10.000000)" sketch:type="MSShapeGroup">
                <g id="Group" transform="translate(119.000000, 0.000000)">
                    <path d="M61.976,0.049 L109.016,120 L96.752,120 L82.136,82.705 L27.536,82.705 L13.088,120 L0.992,120 L49.208,0.049 L61.976,0.049 L61.976,0.049 Z M78.272,72.961 L55.087,11.473 L31.064,72.961 L78.272,72.961 L78.272,72.961 Z" id="Shape" fill="#000000"></path>
                    <path d="M145.638,33.312 L145.638,42.216 L127.998,42.216 L127.998,100.68 C127.998,104.153 128.474,106.869 129.426,108.827 C130.376,110.788 132.757,111.88 136.567,112.103 C139.59,112.103 142.615,111.935 145.638,111.599 L145.638,120.502 C144.069,120.502 142.501,120.558 140.935,120.67 C139.365,120.781 137.797,120.838 136.231,120.838 C129.174,120.838 124.245,119.469 121.447,116.723 C118.646,113.98 117.302,108.911 117.415,101.519 L117.415,42.217 L102.295,42.217 L102.295,33.313 L117.415,33.313 L117.415,7.273 L127.999,7.273 L127.999,33.313 L145.638,33.313 L145.638,33.312 Z" id="Shape" fill="#000000"></path>
                    <path d="M205.024,34.488 C210.12,36.953 214.403,40.258 217.877,44.4 C221.347,48.545 223.98,53.388 225.773,58.932 C227.563,64.476 228.461,70.384 228.461,76.656 C228.461,82.929 227.563,88.836 225.773,94.381 C223.98,99.924 221.347,104.77 217.877,108.912 C214.403,113.057 210.12,116.334 205.024,118.74 C199.926,121.147 194.076,122.352 187.468,122.352 C180.859,122.352 175.007,121.147 169.912,118.74 C164.813,116.334 160.53,113.056 157.059,108.912 C153.586,104.769 150.954,99.924 149.163,94.381 C147.37,88.836 146.475,82.93 146.475,76.656 C146.475,70.385 147.371,64.476 149.163,58.932 C150.953,53.388 153.586,48.544 157.059,44.4 C160.53,40.257 164.813,36.953 169.912,34.488 C175.007,32.026 180.858,30.793 187.468,30.793 C194.076,30.793 199.927,32.026 205.024,34.488 L205.024,34.488 Z M174.196,42.889 C170.387,45.018 167.224,47.819 164.705,51.289 C162.184,54.762 160.279,58.709 158.992,63.133 C157.704,67.559 157.06,72.066 157.06,76.656 C157.06,81.25 157.704,85.758 158.992,90.18 C160.279,94.606 162.184,98.554 164.705,102.024 C167.225,105.498 170.388,108.298 174.196,110.423 C178.003,112.552 182.428,113.616 187.468,113.616 C192.508,113.616 196.931,112.552 200.739,110.423 C204.546,108.298 207.712,105.497 210.231,102.024 C212.752,98.554 214.655,94.606 215.943,90.18 C217.229,85.757 217.876,81.249 217.876,76.656 C217.876,72.065 217.23,67.558 215.943,63.133 C214.655,58.709 212.752,54.762 210.231,51.289 C207.711,47.818 204.545,45.018 200.739,42.889 C196.93,40.762 192.508,39.697 187.468,39.697 C182.428,39.697 178.003,40.762 174.196,42.889 L174.196,42.889 Z" id="Shape" fill="#000000"></path>
                    <path d="M253.997,33.312 L253.997,47.928 L254.501,47.928 C257.299,42.552 260.969,38.352 265.505,35.327 C270.041,32.304 275.837,30.792 282.893,30.792 C288.605,30.792 293.785,32.193 298.433,34.991 C303.079,37.792 306.188,42.048 307.757,47.759 C310.332,42.048 314.141,37.792 319.181,34.991 C324.221,32.193 329.597,30.792 335.309,30.792 C354.461,30.792 364.038,40.929 364.038,61.2 L364.038,120 L353.454,120 L353.454,61.705 C353.454,54.538 351.941,49.078 348.918,45.324 C345.894,41.573 340.573,39.696 332.958,39.696 C328.364,39.696 324.558,40.565 321.534,42.3 C318.51,44.037 316.099,46.361 314.309,49.272 C312.516,52.185 311.256,55.517 310.53,59.268 C309.8,63.022 309.437,66.912 309.437,70.944 L309.437,120 L298.853,120 L298.853,61.201 C298.853,58.289 298.543,55.517 297.929,52.885 C297.312,50.254 296.304,47.957 294.906,45.996 C293.504,44.038 291.63,42.498 289.277,41.377 C286.925,40.258 284.07,39.696 280.71,39.696 C276.229,39.696 272.336,40.509 269.034,42.133 C265.728,43.758 263.041,45.996 260.97,48.853 C258.897,51.709 257.358,55.069 256.35,58.933 C255.342,62.797 254.838,67.026 254.838,71.618 L254.838,120 L244.254,120 L244.254,33.312 L253.997,33.312 L253.997,33.312 Z" id="Shape" fill="#000000"></path>
                    <path d="M394.947,0.049 L394.947,17.017 L384.363,17.017 L384.363,0.049 L394.947,0.049 L394.947,0.049 Z M394.947,33.312 L394.947,120 L384.363,120 L384.363,33.312 L394.947,33.312 L394.947,33.312 Z" id="Shape" fill="#000000"></path>
                    <path d="M468.363,45.24 C464.441,41.545 458.955,39.696 451.899,39.696 C446.859,39.696 442.433,40.761 438.627,42.888 C434.818,45.017 431.655,47.818 429.136,51.288 C426.615,54.761 424.71,58.708 423.423,63.132 C422.135,67.558 421.491,72.065 421.491,76.655 C421.491,81.249 422.135,85.757 423.423,90.179 C424.71,94.605 426.615,98.553 429.136,102.023 C431.656,105.497 434.819,108.297 438.627,110.422 C442.434,112.551 446.859,113.615 451.899,113.615 C455.146,113.615 458.225,113 461.139,111.766 C464.05,110.535 466.625,108.826 468.867,106.642 C471.106,104.458 472.954,101.854 474.411,98.83 C475.865,95.807 476.764,92.504 477.099,88.918 L487.683,88.918 C486.226,99.447 482.362,107.65 476.091,113.531 C469.817,119.41 461.753,122.35 451.899,122.35 C445.29,122.35 439.438,121.145 434.343,118.738 C429.244,116.332 424.961,113.054 421.49,108.91 C418.017,104.767 415.385,99.922 413.594,94.379 C411.801,88.834 410.906,82.928 410.906,76.654 C410.906,70.383 411.802,64.474 413.594,58.93 C415.384,53.386 418.017,48.542 421.49,44.398 C424.961,40.255 429.244,36.951 434.343,34.486 C439.438,32.024 445.289,30.791 451.899,30.791 C461.194,30.791 469.061,33.256 475.503,38.183 C481.942,43.113 485.777,50.56 487.012,60.527 L476.428,60.527 C474.971,54.034 472.282,48.937 468.363,45.24 L468.363,45.24 Z" id="Shape" fill="#000000"></path>
                    <path d="M511.538,101.353 L511.538,120 L492.891,120 L492.891,101.353 L511.538,101.353 L511.538,101.353 Z" id="Shape" fill="#0480AE"></path>
                    <path d="M581.644,49.706 C579.962,47.043 577.912,44.807 575.494,43.002 C573.075,41.199 570.409,39.826 567.499,38.882 C564.588,37.941 561.534,37.467 558.336,37.467 C552.513,37.467 547.512,38.574 543.33,40.789 C539.147,43.002 535.724,45.935 533.059,49.583 C530.393,53.232 528.425,57.354 527.155,61.944 C525.883,66.537 525.249,71.252 525.249,76.09 C525.249,80.846 525.883,85.541 527.155,90.173 C528.426,94.807 530.393,98.948 533.059,102.596 C535.723,106.246 539.147,109.176 543.33,111.391 C547.512,113.605 552.513,114.711 558.336,114.711 C562.436,114.711 566.125,113.974 569.406,112.498 C572.684,111.021 575.513,109.014 577.892,106.471 C580.27,103.93 582.198,100.957 583.673,97.553 C585.15,94.152 586.091,90.481 586.502,86.545 L594.866,86.545 C594.291,91.957 593.02,96.836 591.053,101.182 C589.085,105.53 586.542,109.219 583.427,112.252 C580.31,115.286 576.641,117.623 572.419,119.263 C568.194,120.903 563.501,121.723 558.335,121.723 C551.447,121.723 545.398,120.471 540.192,117.971 C534.984,115.471 530.66,112.129 527.215,107.947 C523.771,103.765 521.188,98.928 519.466,93.433 C517.744,87.94 516.883,82.159 516.883,76.09 C516.883,70.021 517.744,64.241 519.466,58.746 C521.188,53.254 523.771,48.395 527.215,44.171 C530.659,39.949 534.984,36.588 540.192,34.085 C545.398,31.584 551.447,30.334 558.335,30.334 C562.517,30.334 566.595,30.949 570.573,32.179 C574.55,33.408 578.157,35.235 581.397,37.653 C584.635,40.073 587.341,43.046 589.515,46.57 C591.687,50.096 593.061,54.156 593.635,58.747 L585.271,58.747 C584.534,55.385 583.323,52.371 581.644,49.706 L581.644,49.706 Z" id="Shape" fill="#000000"></path>
                    <path d="M613.685,102.412 C615.162,105.446 617.191,107.865 619.774,109.668 C622.357,111.473 625.411,112.765 628.937,113.543 C632.462,114.323 636.235,114.711 640.253,114.711 C642.548,114.711 645.05,114.385 647.756,113.728 C650.462,113.073 652.984,112.028 655.32,110.591 C657.657,109.157 659.604,107.313 661.163,105.057 C662.72,102.802 663.5,100.075 663.5,96.877 C663.5,94.416 662.946,92.285 661.839,90.481 C660.733,88.678 659.297,87.161 657.534,85.93 C655.769,84.7 653.823,83.697 651.691,82.916 C649.558,82.138 647.467,81.502 645.419,81.01 L625.861,76.213 C623.319,75.557 620.838,74.736 618.42,73.752 C616.001,72.769 613.889,71.458 612.086,69.816 C610.281,68.177 608.826,66.169 607.72,63.789 C606.613,61.412 606.059,58.5 606.059,55.057 C606.059,52.926 606.468,50.425 607.289,47.554 C608.107,44.684 609.644,41.979 611.901,39.436 C614.155,36.895 617.252,34.743 621.187,32.979 C625.124,31.216 630.166,30.334 636.316,30.334 C640.662,30.334 644.803,30.908 648.74,32.056 C652.676,33.205 656.12,34.927 659.071,37.222 C662.023,39.518 664.38,42.368 666.144,45.77 C667.906,49.174 668.789,53.131 668.789,57.64 L660.425,57.64 C660.26,54.279 659.502,51.348 658.15,48.846 C656.796,46.345 655.033,44.254 652.861,42.573 C650.687,40.893 648.187,39.621 645.358,38.76 C642.529,37.9 639.555,37.468 636.44,37.468 C633.569,37.468 630.801,37.777 628.138,38.392 C625.472,39.006 623.135,39.99 621.126,41.343 C619.116,42.697 617.498,44.48 616.268,46.694 C615.039,48.908 614.423,51.656 614.423,54.935 C614.423,56.986 614.771,58.769 615.468,60.286 C616.164,61.805 617.129,63.096 618.359,64.16 C619.589,65.226 621.004,66.088 622.603,66.744 C624.202,67.4 625.903,67.933 627.707,68.342 L649.108,73.631 C652.223,74.452 655.155,75.457 657.903,76.645 C660.649,77.834 663.069,79.311 665.16,81.073 C667.251,82.839 668.89,84.991 670.08,87.531 C671.268,90.074 671.863,93.149 671.863,96.757 C671.863,97.74 671.759,99.054 671.556,100.693 C671.35,102.334 670.858,104.076 670.079,105.921 C669.299,107.766 668.192,109.632 666.758,111.518 C665.322,113.405 663.355,115.106 660.855,116.622 C658.352,118.141 655.258,119.37 651.568,120.312 C647.879,121.253 643.451,121.726 638.285,121.726 C633.119,121.726 628.321,121.13 623.893,119.943 C619.465,118.756 615.693,116.929 612.578,114.468 C609.461,112.009 607.061,108.853 605.382,104.997 C603.7,101.143 602.984,96.511 603.23,91.099 L611.594,91.099 C611.511,95.605 612.209,99.379 613.685,102.412 L613.685,102.412 Z" id="Shape" fill="#000000"></path>
                    <path d="M691.173,102.412 C692.65,105.446 694.679,107.865 697.262,109.668 C699.845,111.473 702.899,112.765 706.425,113.543 C709.95,114.323 713.723,114.711 717.741,114.711 C720.036,114.711 722.538,114.385 725.244,113.728 C727.95,113.073 730.472,112.028 732.808,110.591 C735.145,109.157 737.092,107.313 738.651,105.057 C740.208,102.802 740.988,100.075 740.988,96.877 C740.988,94.416 740.434,92.285 739.327,90.481 C738.221,88.678 736.785,87.161 735.022,85.93 C733.257,84.7 731.311,83.697 729.179,82.916 C727.046,82.138 724.955,81.502 722.907,81.01 L703.349,76.213 C700.807,75.557 698.326,74.736 695.908,73.752 C693.489,72.769 691.377,71.458 689.574,69.816 C687.769,68.177 686.314,66.169 685.208,63.789 C684.101,61.412 683.547,58.5 683.547,55.057 C683.547,52.926 683.956,50.425 684.777,47.554 C685.595,44.684 687.132,41.979 689.389,39.436 C691.643,36.895 694.74,34.743 698.675,32.979 C702.612,31.216 707.654,30.334 713.804,30.334 C718.15,30.334 722.291,30.908 726.228,32.056 C730.164,33.205 733.608,34.927 736.559,37.222 C739.511,39.518 741.868,42.368 743.632,45.77 C745.394,49.174 746.277,53.131 746.277,57.64 L737.913,57.64 C737.748,54.279 736.99,51.348 735.638,48.846 C734.284,46.345 732.521,44.254 730.349,42.573 C728.175,40.893 725.675,39.621 722.846,38.76 C720.017,37.9 717.043,37.468 713.928,37.468 C711.057,37.468 708.289,37.777 705.626,38.392 C702.96,39.006 700.623,39.99 698.614,41.343 C696.604,42.697 694.986,44.48 693.756,46.694 C692.527,48.908 691.911,51.656 691.911,54.935 C691.911,56.986 692.259,58.769 692.956,60.286 C693.652,61.805 694.617,63.096 695.847,64.16 C697.077,65.226 698.492,66.088 700.091,66.744 C701.69,67.4 703.391,67.933 705.195,68.342 L726.596,73.631 C729.711,74.452 732.643,75.457 735.391,76.645 C738.137,77.834 740.557,79.311 742.648,81.073 C744.739,82.839 746.378,84.991 747.568,87.531 C748.756,90.074 749.351,93.149 749.351,96.757 C749.351,97.74 749.247,99.054 749.044,100.693 C748.838,102.334 748.346,104.076 747.567,105.921 C746.787,107.766 745.68,109.632 744.246,111.518 C742.81,113.405 740.843,115.106 738.343,116.622 C735.84,118.141 732.746,119.37 729.056,120.312 C725.367,121.253 720.939,121.726 715.773,121.726 C710.607,121.726 705.809,121.13 701.381,119.943 C696.953,118.756 693.181,116.929 690.066,114.468 C686.949,112.009 684.549,108.853 682.87,104.997 C681.188,101.143 680.472,96.511 680.718,91.099 L689.082,91.099 C688.999,95.605 689.697,99.379 691.173,102.412 L691.173,102.412 Z" id="Shape" fill="#000000"></path>
                </g>
                <rect id="Rectangle-path" fill="#0480AE" x="0.897" y="0" width="110" height="120"></rect>
                <path d="M61.4535442,24.999 L89.8339958,97.6285429 L79.1531807,97.6285429 L71.2188609,75.7583024 L40.4988021,75.7583024 L32.3610382,97.6285429 L22.4939995,97.6285429 L50.7727291,24.999 L61.4535442,24.999 L61.4535442,24.999 Z M68.1671994,67.6205385 L56.0622756,33.7470962 L55.8588315,33.7470962 L43.5504636,67.6205385 L68.1671994,67.6205385 L68.1671994,67.6205385 Z" id="Shape" fill="#FFFFFF"></path>
            </g>
            <g id="tools" transform="translate(1.000000, 0.000000)"></g>
        </g>
    </g>
</svg>