<?xml version="1.0" encoding="utf-8"?>
<!-- Generator: Adobe Illustrator 16.0.0, SVG Export Plug-In . SVG Version: 6.00 Build 0)  -->
<!DOCTYPE svg PUBLIC "-//W3C//DTD SVG 1.1//EN" "http://www.w3.org/Graphics/SVG/1.1/DTD/svg11.dtd">
<svg version="1.1" xmlns="http://www.w3.org/2000/svg" xmlns:xlink="http://www.w3.org/1999/xlink" x="0px" y="0px" width="870px"
	 height="170px" viewBox="0 0 870 170" enable-background="new 0 0 870 170" xml:space="preserve">
<g id="Finish_Elements_Layer">
	<g>
		<path d="M179.976,10.049L227.016,130h-12.264l-14.616-37.295h-54.6L131.088,130h-12.096l48.216-119.951H179.976z M196.272,82.961
			l-23.185-61.488l-24.023,61.488H196.272z"/>
		<path d="M263.638,43.312v8.904h-17.64v58.464c0,3.473,0.476,6.189,1.428,8.147c0.95,1.961,3.331,3.053,7.141,3.276
			c3.023,0,6.048-0.168,9.071-0.504v8.903c-1.569,0-3.137,0.056-4.703,0.168c-1.57,0.111-3.138,0.168-4.704,0.168
			c-7.057,0-11.986-1.369-14.784-4.115c-2.801-2.743-4.145-7.812-4.032-15.204V52.217h-15.12v-8.904h15.12v-26.04h10.584v26.04
			H263.638z"/>
		<path d="M323.024,44.488c5.096,2.465,9.379,5.77,12.853,9.912c3.47,4.145,6.103,8.988,7.896,14.532
			c1.79,5.544,2.688,11.452,2.688,17.724c0,6.273-0.898,12.18-2.688,17.725c-1.793,5.543-4.426,10.389-7.896,14.531
			c-3.474,4.145-7.757,7.422-12.853,9.828c-5.098,2.407-10.948,3.612-17.556,3.612c-6.609,0-12.461-1.205-17.556-3.612
			c-5.099-2.406-9.382-5.684-12.853-9.828c-3.473-4.143-6.105-8.988-7.896-14.531c-1.793-5.545-2.688-11.451-2.688-17.725
			c0-6.271,0.896-12.18,2.688-17.724c1.79-5.544,4.423-10.388,7.896-14.532c3.471-4.143,7.754-7.447,12.853-9.912
			c5.095-2.462,10.946-3.695,17.556-3.695C312.076,40.793,317.927,42.026,323.024,44.488z M292.196,52.889
			c-3.809,2.129-6.972,4.93-9.491,8.4c-2.521,3.473-4.426,7.42-5.713,11.844c-1.288,4.426-1.932,8.933-1.932,13.523
			c0,4.594,0.644,9.102,1.932,13.524c1.287,4.426,3.192,8.374,5.713,11.844c2.52,3.474,5.683,6.274,9.491,8.399
			c3.807,2.129,8.232,3.193,13.272,3.193s9.463-1.064,13.271-3.193c3.807-2.125,6.973-4.926,9.492-8.399
			c2.521-3.47,4.424-7.418,5.712-11.844c1.286-4.423,1.933-8.931,1.933-13.524c0-4.591-0.646-9.098-1.933-13.523
			c-1.288-4.424-3.191-8.371-5.712-11.844c-2.52-3.471-5.686-6.271-9.492-8.4c-3.809-2.127-8.231-3.192-13.271-3.192
			S296.003,50.762,292.196,52.889z"/>
		<path d="M371.997,43.312v14.616h0.504c2.798-5.376,6.468-9.576,11.004-12.601c4.536-3.023,10.332-4.535,17.388-4.535
			c5.712,0,10.892,1.401,15.54,4.199c4.646,2.801,7.755,7.057,9.324,12.768c2.575-5.711,6.384-9.967,11.424-12.768
			c5.04-2.798,10.416-4.199,16.128-4.199c19.152,0,28.729,10.137,28.729,30.408V130h-10.584V71.705
			c0-7.167-1.513-12.627-4.536-16.381c-3.024-3.751-8.345-5.628-15.96-5.628c-4.594,0-8.4,0.869-11.424,2.604
			c-3.024,1.737-5.435,4.061-7.225,6.972c-1.793,2.913-3.053,6.245-3.779,9.996c-0.73,3.754-1.093,7.644-1.093,11.676V130h-10.584
			V71.201c0-2.912-0.31-5.684-0.924-8.316c-0.617-2.631-1.625-4.928-3.023-6.889c-1.402-1.958-3.276-3.498-5.629-4.619
			c-2.352-1.119-5.207-1.681-8.567-1.681c-4.481,0-8.374,0.813-11.676,2.437c-3.306,1.625-5.993,3.863-8.064,6.72
			c-2.073,2.856-3.612,6.216-4.62,10.08s-1.512,8.093-1.512,12.685V130h-10.584V43.312H371.997z"/>
		<path d="M512.947,10.049v16.968h-10.584V10.049H512.947z M512.947,43.312V130h-10.584V43.312H512.947z"/>
		<path d="M586.363,55.24c-3.922-3.695-9.408-5.544-16.464-5.544c-5.04,0-9.466,1.065-13.272,3.192
			c-3.809,2.129-6.972,4.93-9.491,8.4c-2.521,3.473-4.426,7.42-5.713,11.844c-1.288,4.426-1.932,8.933-1.932,13.523
			c0,4.594,0.644,9.102,1.932,13.524c1.287,4.426,3.192,8.374,5.713,11.844c2.52,3.474,5.683,6.274,9.491,8.399
			c3.807,2.129,8.232,3.193,13.272,3.193c3.247,0,6.326-0.615,9.24-1.849c2.911-1.231,5.486-2.94,7.728-5.124
			c2.239-2.184,4.087-4.788,5.544-7.812c1.454-3.023,2.353-6.326,2.688-9.912h10.584c-1.457,10.529-5.321,18.732-11.592,24.613
			c-6.274,5.879-14.338,8.819-24.192,8.819c-6.609,0-12.461-1.205-17.556-3.612c-5.099-2.406-9.382-5.684-12.853-9.828
			c-3.473-4.143-6.105-8.988-7.896-14.531c-1.793-5.545-2.688-11.451-2.688-17.725c0-6.271,0.896-12.18,2.688-17.724
			c1.79-5.544,4.423-10.388,7.896-14.532c3.471-4.143,7.754-7.447,12.853-9.912c5.095-2.462,10.946-3.695,17.556-3.695
			c9.295,0,17.162,2.465,23.604,7.392c6.439,4.93,10.274,12.377,11.509,22.344h-10.584C592.971,64.034,590.282,58.937,586.363,55.24
			z"/>
		<path fill="#0480AE" d="M629.538,111.353V130h-18.647v-18.647H629.538z"/>
		<path fill="#000000" d="M699.644,59.706c-1.682-2.663-3.732-4.899-6.15-6.704c-2.419-1.803-5.085-3.176-7.995-4.12
			c-2.911-0.941-5.965-1.415-9.163-1.415c-5.823,0-10.824,1.107-15.006,3.322c-4.183,2.213-7.606,5.146-10.271,8.794
			c-2.666,3.649-4.634,7.771-5.904,12.361c-1.272,4.593-1.906,9.308-1.906,14.146c0,4.756,0.634,9.451,1.906,14.083
			c1.271,4.634,3.238,8.775,5.904,12.423c2.664,3.65,6.088,6.58,10.271,8.795c4.182,2.214,9.183,3.32,15.006,3.32
			c4.1,0,7.789-0.737,11.07-2.213c3.278-1.477,6.107-3.484,8.486-6.027c2.378-2.541,4.306-5.514,5.781-8.918
			c1.477-3.401,2.418-7.072,2.829-11.008h8.364c-0.575,5.412-1.846,10.291-3.813,14.637c-1.968,4.348-4.511,8.037-7.626,11.07
			c-3.117,3.034-6.786,5.371-11.008,7.011c-4.225,1.64-8.918,2.46-14.084,2.46c-6.888,0-12.937-1.252-18.143-3.752
			c-5.208-2.5-9.532-5.842-12.977-10.024c-3.444-4.182-6.027-9.019-7.749-14.514c-1.722-5.493-2.583-11.274-2.583-17.343
			s0.861-11.849,2.583-17.344c1.722-5.492,4.305-10.351,7.749-14.575c3.444-4.222,7.769-7.583,12.977-10.086
			c5.206-2.501,11.255-3.751,18.143-3.751c4.182,0,8.26,0.615,12.238,1.845c3.977,1.229,7.584,3.056,10.824,5.474
			c3.238,2.42,5.944,5.393,8.118,8.917c2.172,3.526,3.546,7.586,4.12,12.177h-8.364C702.534,65.385,701.323,62.371,699.644,59.706z"
			/>
		<path fill="#000000" d="M731.685,112.412c1.477,3.034,3.506,5.453,6.089,7.256c2.583,1.805,5.637,3.097,9.163,3.875
			c3.525,0.78,7.298,1.168,11.316,1.168c2.295,0,4.797-0.326,7.503-0.983c2.706-0.655,5.228-1.7,7.564-3.137
			c2.337-1.434,4.284-3.278,5.843-5.534c1.557-2.255,2.337-4.982,2.337-8.18c0-2.461-0.554-4.592-1.661-6.396
			c-1.106-1.803-2.542-3.32-4.305-4.551c-1.765-1.23-3.711-2.233-5.843-3.014c-2.133-0.778-4.224-1.414-6.272-1.906l-19.558-4.797
			c-2.542-0.656-5.023-1.477-7.441-2.461c-2.419-0.983-4.531-2.294-6.334-3.936c-1.805-1.639-3.26-3.647-4.366-6.027
			c-1.107-2.377-1.661-5.289-1.661-8.732c0-2.131,0.409-4.632,1.23-7.503c0.818-2.87,2.355-5.575,4.612-8.118
			c2.254-2.541,5.351-4.693,9.286-6.457c3.937-1.763,8.979-2.645,15.129-2.645c4.346,0,8.487,0.574,12.424,1.722
			c3.936,1.149,7.38,2.871,10.331,5.166c2.952,2.296,5.309,5.146,7.073,8.548c1.762,3.404,2.645,7.361,2.645,11.87h-8.364
			c-0.165-3.361-0.923-6.292-2.275-8.794c-1.354-2.501-3.117-4.592-5.289-6.273c-2.174-1.68-4.674-2.952-7.503-3.813
			c-2.829-0.86-5.803-1.292-8.918-1.292c-2.871,0-5.639,0.309-8.302,0.924c-2.666,0.614-5.003,1.598-7.012,2.951
			c-2.01,1.354-3.628,3.137-4.858,5.351c-1.229,2.214-1.845,4.962-1.845,8.241c0,2.051,0.348,3.834,1.045,5.351
			c0.696,1.519,1.661,2.81,2.891,3.874c1.23,1.066,2.645,1.928,4.244,2.584c1.599,0.656,3.3,1.189,5.104,1.598l21.401,5.289
			c3.115,0.821,6.047,1.826,8.795,3.014c2.746,1.189,5.166,2.666,7.257,4.428c2.091,1.766,3.73,3.918,4.92,6.458
			c1.188,2.543,1.783,5.618,1.783,9.226c0,0.983-0.104,2.297-0.307,3.936c-0.206,1.641-0.698,3.383-1.477,5.228
			c-0.78,1.845-1.887,3.711-3.321,5.597c-1.436,1.887-3.403,3.588-5.903,5.104c-2.503,1.519-5.597,2.748-9.287,3.69
			c-3.689,0.941-8.117,1.414-13.283,1.414s-9.964-0.596-14.392-1.783s-8.2-3.014-11.315-5.475c-3.117-2.459-5.517-5.615-7.196-9.471
			c-1.682-3.854-2.398-8.486-2.152-13.898h8.364C729.511,105.605,730.209,109.379,731.685,112.412z"/>
		<path fill="#000000" d="M809.173,112.412c1.477,3.034,3.506,5.453,6.089,7.256c2.583,1.805,5.637,3.097,9.163,3.875
			c3.525,0.78,7.298,1.168,11.316,1.168c2.295,0,4.797-0.326,7.503-0.983c2.706-0.655,5.228-1.7,7.564-3.137
			c2.337-1.434,4.284-3.278,5.843-5.534c1.557-2.255,2.337-4.982,2.337-8.18c0-2.461-0.554-4.592-1.661-6.396
			c-1.106-1.803-2.542-3.32-4.305-4.551c-1.765-1.23-3.711-2.233-5.843-3.014c-2.133-0.778-4.224-1.414-6.272-1.906l-19.558-4.797
			c-2.542-0.656-5.023-1.477-7.441-2.461c-2.419-0.983-4.531-2.294-6.334-3.936c-1.805-1.639-3.26-3.647-4.366-6.027
			c-1.107-2.377-1.661-5.289-1.661-8.732c0-2.131,0.409-4.632,1.23-7.503c0.818-2.87,2.355-5.575,4.612-8.118
			c2.254-2.541,5.351-4.693,9.286-6.457c3.937-1.763,8.979-2.645,15.129-2.645c4.346,0,8.487,0.574,12.424,1.722
			c3.936,1.149,7.38,2.871,10.331,5.166c2.952,2.296,5.309,5.146,7.073,8.548c1.762,3.404,2.645,7.361,2.645,11.87h-8.364
			c-0.165-3.361-0.923-6.292-2.275-8.794c-1.354-2.501-3.117-4.592-5.289-6.273c-2.174-1.68-4.674-2.952-7.503-3.813
			c-2.829-0.86-5.803-1.292-8.918-1.292c-2.871,0-5.639,0.309-8.302,0.924c-2.666,0.614-5.003,1.598-7.012,2.951
			c-2.01,1.354-3.628,3.137-4.858,5.351c-1.229,2.214-1.845,4.962-1.845,8.241c0,2.051,0.348,3.834,1.045,5.351
			c0.696,1.519,1.661,2.81,2.891,3.874c1.23,1.066,2.645,1.928,4.244,2.584c1.599,0.656,3.3,1.189,5.104,1.598l21.401,5.289
			c3.115,0.821,6.047,1.826,8.795,3.014c2.746,1.189,5.166,2.666,7.257,4.428c2.091,1.766,3.73,3.918,4.92,6.458
			c1.188,2.543,1.783,5.618,1.783,9.226c0,0.983-0.104,2.297-0.307,3.936c-0.206,1.641-0.698,3.383-1.477,5.228
			c-0.78,1.845-1.887,3.711-3.321,5.597c-1.436,1.887-3.403,3.588-5.903,5.104c-2.503,1.519-5.597,2.748-9.287,3.69
			c-3.689,0.941-8.117,1.414-13.283,1.414s-9.964-0.596-14.392-1.783s-8.2-3.014-11.315-5.475c-3.117-2.459-5.517-5.615-7.196-9.471
			c-1.682-3.854-2.398-8.486-2.152-13.898h8.364C806.999,105.605,807.697,109.379,809.173,112.412z"/>
	</g>
	<path fill="none" d="M17.244,125.913"/>
	<rect x="-0.103" y="10" fill="#0480AE" width="110" height="120"/>
	<g>
		<path fill="#FFFFFF" d="M76.04,111.224c-0.697-0.486-1.526-0.729-2.486-0.729c-0.819,0-1.52,0.153-2.102,0.461
			c-0.583,0.307-1.062,0.72-1.44,1.238c-0.377,0.519-0.655,1.11-0.835,1.775c-0.18,0.666-0.269,1.357-0.269,2.073
			c0,0.781,0.089,1.521,0.269,2.218c0.18,0.698,0.458,1.306,0.835,1.824c0.378,0.518,0.861,0.931,1.45,1.238
			c0.588,0.307,1.292,0.46,2.111,0.46c0.602,0,1.136-0.099,1.604-0.297c0.467-0.198,0.87-0.474,1.209-0.826
			c0.339-0.352,0.604-0.771,0.797-1.257c0.191-0.486,0.307-1.011,0.346-1.574h1.823c-0.179,1.728-0.774,3.071-1.785,4.031
			s-2.394,1.44-4.146,1.44c-1.062,0-1.99-0.183-2.784-0.548c-0.794-0.364-1.452-0.866-1.978-1.507
			c-0.524-0.64-0.918-1.395-1.181-2.266c-0.262-0.87-0.394-1.805-0.394-2.803s0.141-1.936,0.423-2.812
			c0.281-0.876,0.694-1.642,1.238-2.294c0.544-0.653,1.222-1.168,2.035-1.546c0.812-0.377,1.743-0.566,2.793-0.566
			c0.717,0,1.395,0.097,2.035,0.288c0.64,0.192,1.209,0.474,1.709,0.845c0.499,0.372,0.914,0.835,1.247,1.392
			c0.333,0.558,0.551,1.2,0.653,1.93h-1.824C77.188,112.439,76.737,111.71,76.04,111.224z"/>
		<path fill="#FFFFFF" d="M88.479,111.156c-0.607-0.441-1.385-0.662-2.332-0.662c-0.384,0-0.762,0.038-1.133,0.115
			s-0.701,0.205-0.988,0.384c-0.288,0.18-0.519,0.42-0.691,0.72c-0.173,0.301-0.26,0.676-0.26,1.123
			c0,0.423,0.125,0.766,0.375,1.027c0.249,0.263,0.582,0.478,0.998,0.644s0.886,0.304,1.411,0.412
			c0.524,0.109,1.059,0.228,1.604,0.355c0.543,0.128,1.077,0.278,1.603,0.451c0.524,0.173,0.995,0.406,1.411,0.701
			c0.416,0.294,0.749,0.665,0.998,1.113c0.25,0.448,0.375,1.011,0.375,1.689c0,0.729-0.164,1.354-0.49,1.872
			c-0.326,0.518-0.745,0.94-1.257,1.267c-0.513,0.326-1.085,0.563-1.719,0.71c-0.634,0.147-1.264,0.222-1.891,0.222
			c-0.769,0-1.495-0.097-2.18-0.288c-0.685-0.192-1.286-0.483-1.804-0.874c-0.519-0.39-0.929-0.89-1.229-1.497
			c-0.301-0.608-0.451-1.328-0.451-2.16h1.729c0,0.576,0.111,1.072,0.336,1.488c0.224,0.416,0.519,0.758,0.883,1.026
			c0.365,0.27,0.79,0.468,1.276,0.596s0.985,0.191,1.498,0.191c0.409,0,0.822-0.038,1.238-0.114c0.415-0.077,0.79-0.208,1.123-0.394
			c0.332-0.186,0.602-0.438,0.806-0.759c0.205-0.319,0.308-0.729,0.308-1.229c0-0.474-0.125-0.857-0.374-1.152
			c-0.25-0.294-0.583-0.534-0.999-0.72s-0.886-0.336-1.411-0.451c-0.524-0.115-1.059-0.233-1.603-0.355
			c-0.544-0.121-1.078-0.262-1.604-0.422c-0.524-0.16-0.995-0.371-1.411-0.634c-0.416-0.262-0.748-0.602-0.998-1.018
			c-0.249-0.415-0.374-0.938-0.374-1.564c0-0.691,0.141-1.289,0.422-1.795s0.656-0.922,1.123-1.248
			c0.468-0.326,0.999-0.569,1.594-0.729c0.596-0.16,1.206-0.24,1.834-0.24c0.703,0,1.356,0.084,1.958,0.25s1.129,0.429,1.584,0.787
			c0.454,0.358,0.812,0.81,1.074,1.354c0.263,0.544,0.406,1.193,0.433,1.948h-1.728C89.442,112.312,89.088,111.598,88.479,111.156z"
			/>
		<path fill="#FFFFFF" d="M100.92,111.156c-0.607-0.441-1.385-0.662-2.332-0.662c-0.384,0-0.762,0.038-1.133,0.115
			s-0.701,0.205-0.988,0.384c-0.288,0.18-0.519,0.42-0.691,0.72c-0.173,0.301-0.26,0.676-0.26,1.123
			c0,0.423,0.125,0.766,0.375,1.027c0.249,0.263,0.582,0.478,0.998,0.644s0.886,0.304,1.411,0.412
			c0.524,0.109,1.059,0.228,1.604,0.355c0.543,0.128,1.077,0.278,1.603,0.451c0.524,0.173,0.995,0.406,1.411,0.701
			c0.416,0.294,0.749,0.665,0.998,1.113c0.25,0.448,0.375,1.011,0.375,1.689c0,0.729-0.164,1.354-0.49,1.872
			c-0.326,0.518-0.745,0.94-1.257,1.267c-0.513,0.326-1.085,0.563-1.719,0.71c-0.634,0.147-1.264,0.222-1.891,0.222
			c-0.769,0-1.495-0.097-2.18-0.288c-0.685-0.192-1.286-0.483-1.804-0.874c-0.519-0.39-0.929-0.89-1.229-1.497
			c-0.301-0.608-0.451-1.328-0.451-2.16h1.729c0,0.576,0.111,1.072,0.336,1.488c0.224,0.416,0.519,0.758,0.883,1.026
			c0.365,0.27,0.79,0.468,1.276,0.596s0.985,0.191,1.498,0.191c0.409,0,0.822-0.038,1.238-0.114c0.415-0.077,0.79-0.208,1.123-0.394
			c0.332-0.186,0.602-0.438,0.806-0.759c0.205-0.319,0.308-0.729,0.308-1.229c0-0.474-0.125-0.857-0.374-1.152
			c-0.25-0.294-0.583-0.534-0.999-0.72s-0.886-0.336-1.411-0.451c-0.524-0.115-1.059-0.233-1.603-0.355
			c-0.544-0.121-1.078-0.262-1.604-0.422c-0.524-0.16-0.995-0.371-1.411-0.634c-0.416-0.262-0.748-0.602-0.998-1.018
			c-0.249-0.415-0.374-0.938-0.374-1.564c0-0.691,0.141-1.289,0.422-1.795s0.656-0.922,1.123-1.248
			c0.468-0.326,0.999-0.569,1.594-0.729c0.596-0.16,1.206-0.24,1.834-0.24c0.703,0,1.356,0.084,1.958,0.25s1.129,0.429,1.584,0.787
			c0.454,0.358,0.812,0.81,1.074,1.354c0.263,0.544,0.406,1.193,0.433,1.948h-1.728C101.883,112.312,101.528,111.598,100.92,111.156
			z"/>
	</g>
	<g>
		<g>
			<path fill="#FFFFFF" d="M58.304,39.999l19.53,49.98h-7.35l-5.46-15.05H43.884l-5.6,15.05h-6.79l19.46-49.98H58.304z
				 M62.924,69.329l-8.33-23.31h-0.14l-8.47,23.31H62.924z"/>
		</g>
	</g>
</g>
<g id="tools">
	<g>
	</g>
	<g>
	</g>
	<g>
	</g>
	<g>
	</g>
	<g>
	</g>
	<g>
	</g>
</g>
</svg>
